<svg width="80" height="80" viewBox="0 0 80 80" fill="none" xmlns="http://www.w3.org/2000/svg">
  <path fill-rule="evenodd" clip-rule="evenodd" d="M36 24V20C36 17.7909 34.2091 16 32 16L24 16C21.7909 16 20 17.7909 20 20V24L20 56V60C20 62.2091 21.7909 64 24 64H32C34.2091 64 36 62.2091 36 60L36 56L36 24ZM60 24V20C60 17.7909 58.2091 16 56 16L48 16C45.7909 16 44 17.7909 44 20V24L44 56V60C44 62.2091 45.7909 64 48 64H56C58.2091 64 60 62.2091 60 60V56L60 24Z" fill="#F2994A" />
  <path d="M36 24L38 24L36 24ZM36 56H38H38H36ZM44 24H46H44ZM44 56L42 56L44 56ZM34 20V24L38 24V20H34ZM24 18H32V14L24 14V18ZM22 24V20H18V24H22ZM22 56L22 24H18L18 56H22ZM22 60V56H18V60H22ZM32 62H24V66H32V62ZM34 56L34 60H38V56H34ZM34 24L34 56H38L38 24L34 24ZM58 20V24H62V20H58ZM48 18L56 18V14L48 14V18ZM46 24V20H42V24H46ZM46 56L46 24H42L42 56L46 56ZM46 60V56L42 56V60L46 60ZM56 62H48V66H56V62ZM58 56V60H62V56H58ZM58 24L58 56H62L62 24H58ZM56 66C59.3137 66 62 63.3137 62 60H58C58 61.1046 57.1046 62 56 62V66ZM48 14C44.6863 14 42 16.6863 42 20H46C46 18.8954 46.8954 18 48 18V14ZM62 20C62 16.6863 59.3137 14 56 14V18C57.1046 18 58 18.8954 58 20H62ZM32 66C35.3137 66 38 63.3137 38 60H34C34 61.1046 33.1046 62 32 62V66ZM42 60C42 63.3137 44.6863 66 48 66V62C46.8954 62 46 61.1046 46 60L42 60ZM24 14C20.6863 14 18 16.6863 18 20H22C22 18.8954 22.8954 18 24 18V14ZM18 60C18 63.3137 20.6863 66 24 66V62C22.8954 62 22 61.1046 22 60H18ZM38 20C38 16.6863 35.3137 14 32 14V18C33.1046 18 34 18.8954 34 20H38Z" fill="#F2994A" />
</svg>